# xmcd
#
# Track frame offsets:
#	150
#	15830
#	29010
#	45023
#	61904
#	82413
#	100107
#	118371
#	134670
#	150738
#	166524
#	185711
#	203242
#	219956
#	236949
#	254177
#	271652
#
# Disc length: 3893 seconds
#
# Revision: 1
# Processed by: cddbd v1.4PL0 Copyright (c) Steve Scherf et al.
# Submitted via: CDmax 1.9
#
DISCID=f00f3311
DTITLE=Lonestar - From There To Here: The Greatest Hits
DYEAR=2003
DGENRE=Country
TTITLE0=Tequila Talkin'
TTITLE1=No News
TTITLE2=Runnin' Away With My Heart
TTITLE3=Come Cryin' To Me
TTITLE4=You Walked In
TTITLE5=Everything's Changed
TTITLE6=Amazed
TTITLE7=Smile
TTITLE8=What About Now
TTITLE9=Tell Her
TTITLE10=I´m Already There
TTITLE11=With Me
TTITLE12=Not a day goes by
TTITLE13=My Front Porch Looking In - (previously unreleased)
TTITLE14=I Pray - (previously unreleased)
TTITLE15=Walking In Memphis - (previously unreleased)
TTITLE16=I'm Already There (Message From Home) - (bonus track, previously unre
TTITLE16=leased)
EXTD=
EXTT0=
EXTT1=
EXTT2=
EXTT3=
EXTT4=
EXTT5=
EXTT6=
EXTT7=
EXTT8=
EXTT9=
EXTT10=
EXTT11=
EXTT12=
EXTT13=
EXTT14=
EXTT15=
EXTT16=
PLAYORDER=
